# xmcd
#
# Track frame offsets:
#	150
#	12862
#	27237
#	41275
#	53975
#	65337
#	79725
#	92662
#	106250
#	120437
#	132462
#	145562
#	159800
#	171650
#
# Disc length: 2447 seconds
#
# Revision: 0
# Processed by: cddbd v1.5.1PL2 Copyright (c) Steve Scherf et al.
# Submitted via: dBpowerAMP V4.0
#
DISCID=ab098d0e
DTITLE=Gene Autry - Gene Autry Collection
DYEAR=2000
DGENRE=Country
TTITLE0=That Silver Haired Daddy Of Mine
TTITLE1=The Life Of Jimmy Rogers
TTITLE2=The Death Of Jimmy Rogers
TTITLE3=Blue Yodel No. 5 
TTITLE4=Rhythm Of The Range
TTITLE5=Nobody's Darling But Mine
TTITLE6=You're The Only Star (In My Blue Heaven)
TTITLE7=Rainbow Valley
TTITLE8=Mexicali Rose
TTITLE9=The One Rose (That's Left In My Heart)
TTITLE10=When It's Springtime In The Rockies
TTITLE11=Take Me Back To My Boots
TTITLE12=There's A Gold-mine In The Sky
TTITLE13=Sail Along, Silver Moon
EXTD=Artist: Gene Autry\nAlbum: Gene Autry Collection\nGenre: Country\nComment: 42 All-Time Classics!\nYear: 2000\n\n 1  That Silver Haired Daddy Of Mine   [2.49   ]\n 2  The Life Of Jimmy Rogers   [3.11   ]\n 3  The Death Of Jimmy Rogers   [3.07   ]\n 
EXTD=4  Blue Yodel No. 5    [2.49   ]\n 5  Rhythm Of The Range   [2.31   ]\n 6  Nobody's Darling But Mine   [3.11   ]\n 7  You're The Only Star (In My Blue Heaven)   [2.52   ]\n 8  Rainbow Valley   [3.01   ]\n 9  Mexicali Rose   [3.09   ]\n10  The One R
EXTD=ose (That's Left In My Heart)   [2.40   ]\n11  When It's Springtime In The Rockies   [2.54   ]\n12  Take Me Back To My Boots   [3.09   ]\n13  There's A Gold-mine In The Sky   [2.38   ]\n14  Sail Along, Silver Moon   [2.39   ]\n\n\n
EXTT0=
EXTT1=
EXTT2=
EXTT3=
EXTT4=
EXTT5=
EXTT6=
EXTT7=
EXTT8=
EXTT9=
EXTT10=
EXTT11=
EXTT12=
EXTT13=
PLAYORDER=
